<?xml version="1.0" encoding="utf-8"?>
<!-- Generator: Adobe Illustrator 24.1.2, SVG Export Plug-In . SVG Version: 6.00 Build 0)  -->
<svg version="1.1" id="Layer_1" xmlns="http://www.w3.org/2000/svg" xmlns:xlink="http://www.w3.org/1999/xlink" x="0px" y="0px"
	 viewBox="0 0 1114.5 264.6" enable-background="new 0 0 1114.5 264.6" xml:space="preserve">
<g>
	<path fill="#EC008C" d="M133,56.2c0-82.5-64.1-68.8-30.1,6.4C68.9-12.7,15.9,25.8,77.9,80.7c-62-54.9-94.7,1.8-15.4,26.7
		c-79.3-24.9-86.1,40.3-3.2,30.6c-82.9,9.6-62.7,71.9,9.5,29.3c-72.2,42.6-28.4,91.3,20.6,22.9c-49,68.4,10.8,95,28.2,12.5
		c-17.3,82.5,48.2,82.5,30.8,0c17.3,82.5,77.2,55.8,28.2-12.5c49,68.4,92.8,19.7,20.6-22.9c72.2,42.6,92.4-19.7,9.5-29.3
		c82.9,9.6,76.1-55.5-3.2-30.6c79.3-24.9,46.6-81.6-15.4-26.7c62-54.9,9-93.4-24.9-18.1C197-12.7,133-26.3,133,56.2z"/>
	<path fill="none" stroke="#FFFFFF" stroke-width="4" stroke-linejoin="round" stroke-miterlimit="10" d="M133,98.2
		c0-37-28.7-30.9-13.5,2.9c-15.2-33.7-38.9-16.5-11.2,8.1c-27.8-24.6-42.4,0.8-6.9,12c-35.5-11.1-38.6,18-1.4,13.7
		c-37.2,4.3-28.1,32.2,4.3,13.1c-32.4,19.1-12.7,40.9,9.2,10.3c-22,30.6,4.8,42.6,12.6,5.6c-7.8,37,21.6,37,13.8,0
		c7.8,37,34.6,25,12.6-5.6c22,30.6,41.6,8.8,9.2-10.3c32.4,19.1,41.4-8.8,4.3-13.1c37.2,4.3,34.1-24.9-1.4-13.7
		c35.5-11.1,20.9-36.5-6.9-12c27.8-24.6,4-41.8-11.2-8.1C161.7,67.3,133,61.2,133,98.2z"/>
</g>
<g>
	<g>
		<path fill="#FFFFFF" d="M490.1,79.4c-17.1,37.3-43.9,76.2-73.4,106.9c-27.7,28.8-52.8,45-69.4,45c-1,0-2-0.1-3-0.2
			c-6.5-0.8-14.7-4.9-17.3-19.6c-5.2-29.6,12.8-67.7,23.9-87.7c16.3-29.3,37.5-55.3,52.7-64.5c7.1-4.3,12.7-4.9,16.8-1.8
			c2.4,1.8,3.7,4.4,4,7.5c0.1,1.6-0.1,3.3-0.5,5.1C443,55,461.5,44.1,475,40.4c9.2-2.5,15.8-1.5,19.5,2.9
			C499.9,49.6,498.4,61.4,490.1,79.4z M490.1,47.1c-2.7-3.2-8.9-2.3-13.6-1.1c-14.6,4-36.4,17.6-57.9,35.8
			c-5.8,9.8-14.3,18.8-15.8,20.4c-1.1,1.2-2.9,1.2-4.1,0.1c-0.4-0.4-0.7-0.9-0.8-1.4c-28.9,29.1-47.8,58.9-51.8,82.1
			c-0.3,1.6-1.8,2.6-3.4,2.4c-1.6-0.3-2.6-1.8-2.4-3.4c4.4-25.1,24.9-57.2,56.3-88c5.7-5.6,11.6-11,17.5-16
			c2.7-4.7,4.6-9.2,4.3-12.6c-0.1-1.5-0.7-2.6-1.7-3.4c-0.7-0.5-1.5-0.7-2.4-0.7c-2.6,0-5.8,1.7-7.8,2.9
			c-14.2,8.6-35,34.2-50.6,62.3c-18.3,33-26.8,63.6-23.3,83.9c1.6,9.1,5.6,14,12.3,14.8c14.3,1.8,40.1-14.6,67.5-43
			c29.1-30.2,55.4-68.6,72.3-105.3C494.2,56.6,492.2,49.5,490.1,47.1z"/>
		<path fill="#FFFFFF" d="M582.4,142c-1.8,1.2-3.5,2.4-5.2,3.6c-19.9,13.8-33,22.9-40.3,19c-2.9-1.5-4.4-4.9-4.4-9.9
			c0-11.2,0.5-24.8,0.8-33.1c-32.8,34.1-48.7,48.5-58.6,48.5c0,0-0.1,0-0.1,0c-2.6,0-4.8-1-6.6-2.9c-5.5-6-1.5-17,12.3-33.9
			c9.5-11.6,20-21.5,20.4-22c1.2-1.1,3-1.1,4.1,0.1c1.1,1.2,1.1,3-0.1,4.1c-0.1,0.1-10.7,10.2-20,21.5c-16,19.6-13.6,25-12.5,26.2
			c0.7,0.7,1.4,1,2.3,1c0,0,0,0,0,0c8.9,0,31.3-22.7,59.7-52.3c0.8-0.9,2.1-1.1,3.3-0.7c1.1,0.5,1.8,1.6,1.8,2.8
			c0,0.2-1.2,23.4-1.2,40.6c0,2.6,0.5,4.3,1.3,4.7c0.7,0.4,3.3,0.8,11.4-3.7c6.3-3.5,14-8.8,22.9-15c1.7-1.2,3.4-2.4,5.2-3.6
			c1.3-0.9,3.1-0.6,4,0.7C584.1,139.3,583.7,141.1,582.4,142z"/>
		<path fill="#FFFFFF" d="M641.9,142c-9.6,6.5-16.6,11.9-22.3,16.3c-10.2,7.8-15.9,12.2-22.4,12.2c-4.8,0-8.6-2.3-10.2-6
			c-1.9-4.6-0.1-10.4,4.7-15.2c6.9-6.9,6.3-9.2,6.3-9.2c0,0-0.7-0.9-4.8-0.9c-3.5,0-6,0.4-7.6,0.9c-0.7,0.5-1.3,0.8-1.8,1.1
			c-0.3,0.2-0.8,0.5-1.3,0.7c-0.7,0.9-2,1.2-3.2,0.8c-1.4-0.5-2.1-2.1-1.8-3.6c5.3-23.4,14.8-27,17.6-27.5c2.9-0.5,5.6,0.5,7.1,2.7
			c1.7,2.6,1.5,6.2-0.7,9.6c-1.8,2.8-5.4,6.3-9,9.5c0.2,0,0.5,0,0.8,0c2.1,0,8.3,0,10.2,4.5c1.6,3.9-0.8,8.8-7.6,15.6
			c-3.7,3.7-4.1,7.1-3.4,8.9c0.9,2.1,3.4,2.5,4.8,2.5c4.6,0,9.7-3.9,18.9-11c5.7-4.4,12.9-9.8,22.5-16.5c1.3-0.9,3.1-0.6,4,0.8
			C643.6,139.3,643.2,141.1,641.9,142z M585.7,131.3c4-3.4,8.9-7.8,10.8-10.7c1-1.6,1-2.8,0.8-3.2c-0.1-0.2-0.4-0.2-0.7-0.2
			c-0.2,0-0.4,0-0.5,0C593.7,117.7,589.4,121.3,585.7,131.3z"/>
		<path fill="#FFFFFF" d="M858.8,45.3C803,64.6,743.1,227.4,742.5,229c-0.4,1.2-1.5,1.9-2.7,1.9c-0.3,0-0.7-0.1-1-0.2
			c-1.5-0.6-2.3-2.2-1.7-3.7c0.2-0.4,15.4-42.1,37.5-85.6c0.3-0.5,0.6-1.1,0.8-1.6h-47.8c-0.6,0-1.2-0.2-1.7-0.5
			c-28.5,48.8-63,90.7-63.5,91.2c-0.6,0.7-1.4,1.1-2.2,1.1c-0.7,0-1.3-0.2-1.9-0.7c-1.2-1-1.4-2.9-0.4-4.1
			c0.7-0.8,68.6-83.2,91.9-151.2c5.7-16.5,5.9-27.2,0.8-30.1c-12.1-6.9-53,20.8-74.7,46.4c-6.8,8-9.3,14.2-7.4,17.8
			c3.4,6.5,20.4,6.2,26.1,5.7c1.6-0.2,3,1,3.2,2.6c0.2,1.6-1,3-2.6,3.2c-2.6,0.3-26,2.4-31.8-8.7c-3.2-6.1-0.6-14,8.1-24.3
			C682,75.8,698,61.9,713.2,52c12.9-8.4,30.4-17.2,40.3-11.6c8.2,4.7,8.8,16.8,1.9,37.1C749.1,96,739.5,115.4,729,134h49.2
			c0.1,0,0.2,0,0.2,0c28.5-54.4,54.9-86.1,78.5-94.2c1.5-0.5,3.2,0.3,3.7,1.8C861.1,43.2,860.3,44.8,858.8,45.3z"/>
		<path fill="#FFFFFF" d="M884.2,142.3c-10.7,7.4-20.6,9.4-29.6,6.1c-9-3.4-15.2-11.5-19.2-18.9c-1.9,9.1-7.6,21.4-22.4,34.1
			c-5.4,4.7-9.7,7-13.1,7c-1,0-1.8-0.2-2.6-0.5c-1.4-0.6-3.8-2.4-3.8-7.1c-0.2-12.9,15.6-40,37.8-50.8c0.8-0.4,1.7-0.4,2.5,0
			c0.4,0.2,0.7,0.4,0.9,0.7c0.3,0.3,0.5,0.6,0.6,1c0,0,0,0,0,0c0,0,0,0,0,0c0,0,0,0,0,0c0,0.1,0.1,0.3,0.2,0.6
			c0.9,3.1,7.3,23.5,21.1,28.7c7.1,2.6,15.2,0.8,24.3-5.4c1.3-0.9,3.1-0.6,4,0.7C885.8,139.6,885.5,141.4,884.2,142.3z M830.4,119
			c-18.4,10.8-29.7,32.1-31,41.8c-0.4,2.7,0.1,3.7,0.3,3.9c0,0,2.3,0.7,9.6-5.5C829.5,141.7,830.9,125.9,830.4,119z"/>
		<path fill="#FFFFFF" d="M1031.5,51.4c-0.1,1.6-1.5,2.8-3.1,2.7c-27.8-2-51.4-2.6-71.3-2.4c-11.4,19.4-67.8,84.8-71.1,88.6
			c-8,16.7-7.2,21.9-6.6,23.3c0.2,0.4,0.5,1,2.1,1.1c13.6,0.6,47.6-13,68.6-27.4c1.3-0.9,3.1-0.6,4,0.8c0.9,1.3,0.6,3.1-0.8,4
			c-21.8,14.9-55.8,28.5-71.2,28.5c-0.3,0-0.7,0-1,0c-3.3-0.1-5.9-1.7-7.1-4.5c-1.2-2.7-5.1-11,19.9-52.4
			c13.2-21.9,29.9-45.3,39.8-57.8c1-1.3,2-2.5,2.9-3.6c-50.4,2.1-70.2,9.8-70.5,9.9c-0.4,0.1-0.7,0.2-1.1,0.2
			c-1.2,0-2.2-0.7-2.7-1.8c-0.6-1.5,0.1-3.2,1.6-3.8c1.2-0.5,22.7-8.8,77.9-10.6c2.9-3.3,5.5-6,7.8-8c3.6-3.2,7.7-6.3,10.8-4.2
			c2.6,1.7,2.6,5.4-0.4,11.9c19.4-0.1,42.2,0.6,68.7,2.5C1030.4,48.4,1031.6,49.8,1031.5,51.4z M950.1,51.8c-1.9,0-3.8,0.1-5.6,0.1
			c-1.8,2.1-3.9,4.6-6.2,7.5c-9.5,12-25.2,34-38,55C917.3,94.2,941,65.5,950.1,51.8z M949.9,45.9c1.2,0,2.4,0,3.6-0.1
			c1.2-2.4,1.9-4.2,2.3-5.4C954.6,41.4,952.6,43.1,949.9,45.9z"/>
		<path fill="#FFFFFF" d="M1028.2,142c-20.2,14-45.7,28.9-62.9,28.9c-3.7,0-7.1-0.7-9.9-2.3c-5.9-3.3-8.5-9.8-8-19.3
			c0.7-12.5,10.9-27.8,20.3-35.3c4.3-3.4,7.4-3.3,9.3-2.5c2.1,0.8,3.5,2.7,3.8,5.2c0.5,3.7-1.4,7.9-4.9,10.6
			c-7.6,5.9-19.6,12.7-20.1,13c-0.1,0.1-0.3,0.1-0.4,0.2c-1.2,3.1-2,6.2-2.2,9.1c-0.4,7.1,1.3,11.8,5,13.9
			c9.9,5.6,34.8-4.3,66.6-26.3c1.3-0.9,3.1-0.6,4,0.7C1029.8,139.3,1029.5,141.1,1028.2,142z M960.6,130.8c3.8-2.4,8.3-5.3,11.8-8
			c2-1.5,2.7-3.6,2.7-4.8c0-0.6-0.2-1-0.3-1c0,0-0.1,0-0.2,0c-0.4,0-1.5,0.3-3.3,1.7C967.7,121.6,963.8,125.9,960.6,130.8z"/>
		<path fill="#FFFFFF" d="M1030.3,140.9c-5,12.6-4.5,18.5-3.2,21.2c0.6,1.2,1.9,2.9,5.8,3.1c8.4,0.5,16.4-5.1,40-21.5
			c2.9-2,6-4.2,9.4-6.5c1.3-0.9,3.1-0.6,4,0.7c0.9,1.3,0.6,3.1-0.7,4c-3.4,2.3-6.5,4.5-9.3,6.5c-23.8,16.5-32.5,22.6-42.3,22.6
			c-0.5,0-0.9,0-1.4,0c-6.4-0.4-9.3-3.6-10.7-6.3c-5.7-11.4,5.2-37.7,33.4-80.3c11.1-16.7,22.2-30.4,32.1-39.6
			c6.2-5.7,14.8-12.4,21.1-11.9c2.5,0.2,4.3,1.5,5.3,3.6c2.9,6.4-4.4,17.7-9,23.9c-23.7,31.8-73.7,79.6-74.2,80.1
			C1030.6,140.7,1030.4,140.8,1030.3,140.9z M1037,126.3c15.9-15.7,46.4-46.6,63.2-69.3c9.2-12.3,8.7-17.6,8.3-18.1
			c0,0-0.2-0.1-0.6-0.1c-0.2,0-0.4,0-0.8,0.1c-5.7,0.9-22.8,12.4-46.9,48.8C1049.6,103.7,1042.2,116.3,1037,126.3z"/>
	</g>
	<g>
		<path fill="#EC008C" d="M487.2,79.4c-17.1,37.3-43.9,76.2-73.4,106.9c-27.7,28.8-52.8,45-69.4,45c-1,0-2-0.1-3-0.2
			c-6.5-0.8-14.7-4.9-17.3-19.6c-5.2-29.6,12.8-67.7,23.9-87.7c16.3-29.3,37.5-55.3,52.7-64.5c7.1-4.3,12.7-4.9,16.8-1.8
			c2.4,1.8,3.7,4.4,4,7.5c0.1,1.6-0.1,3.3-0.5,5.1c19.2-15.1,37.7-26,51.2-29.7c9.2-2.5,15.8-1.5,19.5,2.9
			C497,49.6,495.5,61.4,487.2,79.4z M487.3,47.1c-2.7-3.2-8.9-2.3-13.6-1.1c-14.6,4-36.4,17.6-57.9,35.8
			c-5.8,9.8-14.3,18.8-15.8,20.4c-1.1,1.2-2.9,1.2-4.1,0.1c-0.4-0.4-0.7-0.9-0.8-1.4c-28.9,29.1-47.8,58.9-51.8,82.1
			c-0.3,1.6-1.8,2.6-3.4,2.4c-1.6-0.3-2.6-1.8-2.4-3.4c4.4-25.1,24.9-57.2,56.3-88c5.7-5.6,11.6-11,17.5-16
			c2.7-4.7,4.6-9.2,4.3-12.6c-0.1-1.5-0.7-2.6-1.7-3.4c-0.7-0.5-1.5-0.7-2.4-0.7c-2.6,0-5.8,1.7-7.8,2.9
			c-14.2,8.6-35,34.2-50.6,62.3c-18.3,33-26.8,63.6-23.3,83.9c1.6,9.1,5.6,14,12.3,14.8c14.3,1.8,40.1-14.6,67.5-43
			c29.1-30.2,55.4-68.6,72.3-105.3C491.3,56.6,489.3,49.5,487.3,47.1z"/>
		<path fill="#EC008C" d="M579.6,142c-1.8,1.2-3.5,2.4-5.2,3.6c-19.9,13.8-33,22.9-40.3,19c-2.9-1.5-4.4-4.9-4.4-9.9
			c0-11.2,0.5-24.8,0.8-33.1c-32.8,34.1-48.7,48.5-58.6,48.5c0,0-0.1,0-0.1,0c-2.6,0-4.8-1-6.6-2.9c-5.5-6-1.5-17,12.3-33.9
			c9.5-11.6,20-21.5,20.4-22c1.2-1.1,3-1.1,4.1,0.1s1.1,3-0.1,4.1c-0.1,0.1-10.7,10.2-20,21.5c-16,19.6-13.6,25-12.5,26.2
			c0.7,0.7,1.4,1,2.3,1c0,0,0,0,0,0c8.9,0,31.3-22.7,59.7-52.3c0.8-0.9,2.1-1.1,3.3-0.7c1.1,0.5,1.8,1.6,1.8,2.8
			c0,0.2-1.2,23.4-1.2,40.6c0,2.6,0.5,4.3,1.3,4.7c0.7,0.4,3.3,0.8,11.4-3.7c6.3-3.5,14-8.8,22.9-15c1.7-1.2,3.4-2.4,5.2-3.6
			c1.3-0.9,3.1-0.6,4,0.7C581.2,139.3,580.9,141.1,579.6,142z"/>
		<path fill="#EC008C" d="M639.1,142c-9.6,6.5-16.6,11.9-22.3,16.3c-10.2,7.8-15.9,12.2-22.4,12.2c-4.8,0-8.6-2.3-10.2-6
			c-1.9-4.6-0.1-10.4,4.7-15.2c6.9-6.9,6.3-9.2,6.3-9.2c0,0-0.7-0.9-4.8-0.9c-3.5,0-6,0.4-7.6,0.9c-0.7,0.5-1.3,0.8-1.8,1.1
			c-0.3,0.2-0.8,0.5-1.3,0.7c-0.7,0.9-2,1.2-3.2,0.8c-1.4-0.5-2.1-2.1-1.8-3.6c5.3-23.4,14.8-27,17.6-27.5c2.9-0.5,5.6,0.5,7.1,2.7
			c1.7,2.6,1.5,6.2-0.7,9.6c-1.8,2.8-5.4,6.3-9,9.5c0.2,0,0.5,0,0.8,0c2.1,0,8.3,0,10.2,4.5c1.6,3.9-0.8,8.8-7.6,15.6
			c-3.7,3.7-4.1,7.1-3.4,8.9c0.9,2.1,3.4,2.5,4.8,2.5c4.6,0,9.7-3.9,18.9-11c5.7-4.4,12.9-9.8,22.5-16.5c1.3-0.9,3.1-0.6,4,0.8
			C640.7,139.3,640.4,141.1,639.1,142z M582.9,131.3c4-3.4,8.9-7.8,10.8-10.7c1-1.6,1-2.8,0.8-3.2c-0.1-0.2-0.4-0.2-0.7-0.2
			c-0.2,0-0.4,0-0.5,0C590.9,117.7,586.5,121.3,582.9,131.3z"/>
		<path fill="#EC008C" d="M856,45.3C800.2,64.6,740.3,227.4,739.7,229c-0.4,1.2-1.5,1.9-2.7,1.9c-0.3,0-0.7-0.1-1-0.2
			c-1.5-0.6-2.3-2.2-1.7-3.7c0.2-0.4,15.4-42.1,37.5-85.6c0.3-0.5,0.6-1.1,0.8-1.6h-47.8c-0.6,0-1.2-0.2-1.7-0.5
			c-28.5,48.8-63,90.7-63.5,91.2c-0.6,0.7-1.4,1.1-2.2,1.1c-0.7,0-1.3-0.2-1.9-0.7c-1.2-1-1.4-2.9-0.4-4.1
			c0.7-0.8,68.6-83.2,91.9-151.2c5.7-16.5,5.9-27.2,0.8-30.1c-12.1-6.9-53,20.8-74.7,46.4c-6.8,8-9.3,14.2-7.4,17.8
			c3.4,6.5,20.4,6.2,26.1,5.7c1.6-0.2,3,1,3.2,2.6c0.2,1.6-1,3-2.6,3.2c-2.6,0.3-26,2.4-31.8-8.7c-3.2-6.1-0.6-14,8.1-24.3
			c10.5-12.4,26.5-26.3,41.8-36.2c12.9-8.4,30.4-17.2,40.3-11.6c8.2,4.7,8.8,16.8,1.9,37.1c-6.3,18.4-15.8,37.9-26.4,56.5h49.2
			c0.1,0,0.2,0,0.2,0C804,79.7,830.4,48,854.1,39.8c1.5-0.5,3.2,0.3,3.7,1.8C858.3,43.2,857.5,44.8,856,45.3z"/>
		<path fill="#EC008C" d="M881.3,142.3c-10.7,7.4-20.6,9.4-29.6,6.1c-9-3.4-15.2-11.5-19.2-18.9c-1.9,9.1-7.6,21.4-22.4,34.1
			c-5.4,4.7-9.7,7-13.1,7c-1,0-1.8-0.2-2.6-0.5c-1.4-0.6-3.8-2.4-3.8-7.1c-0.2-12.9,15.6-40,37.8-50.8c0.8-0.4,1.7-0.4,2.5,0
			c0.4,0.2,0.7,0.4,0.9,0.7c0.3,0.3,0.5,0.6,0.6,1c0,0,0,0,0,0c0,0,0,0,0,0c0,0,0,0,0,0c0,0.1,0.1,0.3,0.2,0.6
			c0.9,3.1,7.3,23.5,21.1,28.7c7.1,2.6,15.2,0.8,24.3-5.4c1.3-0.9,3.1-0.6,4,0.7C883,139.6,882.6,141.4,881.3,142.3z M827.5,119
			c-18.4,10.8-29.7,32.1-31,41.8c-0.4,2.7,0.1,3.7,0.3,3.9c0,0,2.3,0.7,9.6-5.5C826.7,141.7,828.1,125.9,827.5,119z"/>
		<path fill="#EC008C" d="M1028.6,51.4c-0.1,1.6-1.5,2.8-3.1,2.7c-27.8-2-51.4-2.6-71.3-2.4c-11.4,19.4-67.8,84.8-71.1,88.6
			c-8,16.7-7.2,21.9-6.6,23.3c0.2,0.4,0.5,1,2.1,1.1c13.6,0.6,47.6-13,68.6-27.4c1.3-0.9,3.1-0.6,4,0.8c0.9,1.3,0.6,3.1-0.8,4
			c-21.8,14.9-55.8,28.5-71.2,28.5c-0.3,0-0.7,0-1,0c-3.3-0.1-5.9-1.7-7.1-4.5c-1.2-2.7-5.1-11,19.9-52.4
			c13.2-21.9,29.9-45.3,39.8-57.8c1-1.3,2-2.5,2.9-3.6c-50.4,2.1-70.2,9.8-70.5,9.9c-0.4,0.1-0.7,0.2-1.1,0.2
			c-1.2,0-2.2-0.7-2.7-1.8c-0.6-1.5,0.1-3.2,1.6-3.8c1.2-0.5,22.7-8.8,77.9-10.6c2.9-3.3,5.5-6,7.8-8c3.6-3.2,7.7-6.3,10.8-4.2
			c2.6,1.7,2.6,5.4-0.4,11.9c19.4-0.1,42.2,0.6,68.7,2.5C1027.5,48.4,1028.7,49.8,1028.6,51.4z M947.2,51.8c-1.9,0-3.8,0.1-5.6,0.1
			c-1.8,2.1-3.9,4.6-6.2,7.5c-9.5,12-25.2,34-38,55C914.5,94.2,938.2,65.5,947.2,51.8z M947.1,45.9c1.2,0,2.4,0,3.6-0.1
			c1.2-2.4,1.9-4.2,2.3-5.4C951.7,41.4,949.8,43.1,947.1,45.9z"/>
		<path fill="#EC008C" d="M1025.3,142c-20.2,14-45.7,28.9-62.9,28.9c-3.7,0-7.1-0.7-9.9-2.3c-5.9-3.3-8.5-9.8-8-19.3
			c0.7-12.5,10.9-27.8,20.3-35.3c4.3-3.4,7.4-3.3,9.3-2.5c2.1,0.8,3.5,2.7,3.8,5.2c0.5,3.7-1.4,7.9-4.9,10.6
			c-7.6,5.9-19.6,12.7-20.1,13c-0.1,0.1-0.3,0.1-0.4,0.2c-1.2,3.1-2,6.2-2.2,9.1c-0.4,7.1,1.3,11.8,5,13.9
			c9.9,5.6,34.8-4.3,66.6-26.3c1.3-0.9,3.1-0.6,4,0.7C1027,139.3,1026.6,141.1,1025.3,142z M957.7,130.8c3.8-2.4,8.3-5.3,11.8-8
			c2-1.5,2.7-3.6,2.7-4.8c0-0.6-0.2-1-0.3-1c0,0-0.1,0-0.2,0c-0.4,0-1.5,0.3-3.3,1.7C964.8,121.6,960.9,125.9,957.7,130.8z"/>
		<path fill="#EC008C" d="M1027.4,140.9c-5,12.6-4.5,18.5-3.2,21.2c0.6,1.2,1.9,2.9,5.8,3.1c8.4,0.5,16.4-5.1,40-21.5
			c2.9-2,6-4.2,9.4-6.5c1.3-0.9,3.1-0.6,4,0.7c0.9,1.3,0.6,3.1-0.7,4c-3.4,2.3-6.5,4.5-9.3,6.5c-23.8,16.5-32.5,22.6-42.3,22.6
			c-0.5,0-0.9,0-1.4,0c-6.4-0.4-9.3-3.6-10.7-6.3c-5.7-11.4,5.2-37.7,33.4-80.3c11.1-16.7,22.2-30.4,32.1-39.6
			c6.2-5.7,14.8-12.4,21.1-11.9c2.5,0.2,4.3,1.5,5.3,3.6c2.9,6.4-4.4,17.7-9,23.9c-23.7,31.8-73.7,79.6-74.2,80.1
			C1027.7,140.7,1027.6,140.8,1027.4,140.9z M1034.2,126.3c15.9-15.7,46.4-46.6,63.2-69.3c9.2-12.3,8.7-17.6,8.3-18.1
			c0,0-0.2-0.1-0.6-0.1c-0.2,0-0.4,0-0.8,0.1c-5.7,0.9-22.8,12.4-46.9,48.8C1046.8,103.7,1039.3,116.3,1034.2,126.3z"/>
	</g>
</g>
</svg>
